Coordinates
version=1
nRows=43
nColumns=12
inDegrees=yes

Units are S.I. units (second, meters, Newtons, ...)
Angles are in degrees

endheader
time	SC_y	SC_z	SC_x	AC_y	AC_z	AC_x	GH_y	GH_z	GH_yy	EL_x	PS_y
       0.0              -47.97          15.51          19.52          47.77          5.211         -18.88          108.0         -5.021          100.4          88.65           27.4
   0.03387              -47.96          15.51          19.53          47.77          5.208         -18.87          108.0         -5.019          100.4          88.64          27.42
   0.06774              -47.96          15.51          19.54          47.77          5.205         -18.87          108.0         -5.016          100.4          88.64          27.43
    0.1016              -47.96          15.51          19.55          47.77          5.201         -18.87          108.0         -5.012          100.3          88.63          27.46
    0.1355              -47.96          15.51          19.56          47.77          5.198         -18.86          108.0         -5.009          100.3          88.62          27.48
    0.1694              -47.96          15.51          19.57          47.77          5.194         -18.86          108.0         -5.005          100.3          88.61           27.5
    0.2032              -47.95          15.51          19.58          47.77           5.19         -18.86          108.0         -5.001          100.2           88.6          27.53
    0.2371              -47.95          15.52           19.6          47.77          5.186         -18.85          107.9         -4.997          100.2          88.59          27.55
     0.271              -47.95          15.52          19.61          47.77          5.182         -18.85          107.9         -4.992          100.1          88.58          27.58
    0.3048              -47.95          15.52          19.63          47.77          5.177         -18.84          107.9         -4.987          100.1          88.56          27.61
    0.3387              -47.94          15.52          19.65          47.77          5.172         -18.84          107.9         -4.982          100.0          88.55          27.65
    0.3726              -47.94          15.53          19.66          47.77          5.166         -18.83          107.9         -4.977          99.95          88.53          27.68
    0.4065              -47.94          15.53          19.68          47.77           5.16         -18.83          107.9         -4.971          99.88          88.52          27.72
    0.4403              -47.93          15.53           19.7          47.77          5.154         -18.82          107.8         -4.964          99.81           88.5          27.76
    0.4742              -47.93          15.53          19.73          47.77          5.147         -18.82          107.8         -4.957          99.73          88.48          27.81
    0.5081              -47.93          15.54          19.75          47.77          5.139         -18.81          107.8         -4.949          99.65          88.46          27.85
    0.5419              -47.92          15.54          19.78          47.77          5.131          -18.8          107.7         -4.941          99.56          88.44          27.91
    0.5758              -47.92          15.54          19.81          47.77          5.122         -18.79          107.7         -4.932          99.46          88.42          27.96
    0.6097              -47.91          15.55          19.84          47.78          5.112         -18.78          107.7         -4.922          99.35          88.39          28.03
    0.6435               -47.9          15.55          19.88          47.78          5.101         -18.77          107.6         -4.911          99.23          88.37           28.1
    0.6774               -47.9          15.56          19.92          47.78          5.089         -18.76          107.6         -4.899           99.1          88.33          28.17
    0.7113              -47.89          15.56          19.96          47.78          5.076         -18.75          107.6         -4.886          98.95           88.3          28.25
    0.7452              -47.88          15.57          20.01          47.78          5.062         -18.74          107.5         -4.871          98.79          88.26          28.35
     0.779              -47.87          15.58          20.06          47.78          5.046         -18.72          107.5         -4.855          98.61          88.22          28.45
    0.8129              -47.86          15.59          20.12          47.78          5.028         -18.71          107.4         -4.837          98.42          88.18          28.56
    0.8468              -47.85          15.59          20.18          47.78          5.009         -18.69          107.3         -4.818           98.2          88.12          28.69
    0.8806              -47.84           15.6          20.25          47.79          4.986         -18.67          107.3         -4.795          97.95          88.07          28.83
    0.9145              -47.83          15.62          20.34          47.79          4.962         -18.64          107.2          -4.77          97.67           88.0          28.99
    0.9484              -47.81          15.63          20.43          47.79          4.933         -18.62          107.1         -4.742          97.36          87.93          29.17
    0.9823              -47.79          15.64          20.53          47.79          4.901         -18.59          107.0         -4.709          97.01          87.85          29.37
     1.016              -47.77          15.66          20.65           47.8          4.865         -18.55          106.8         -4.673           96.6          87.75          29.61
      1.05              -47.75          15.68          20.79           47.8          4.823         -18.51          106.7          -4.63          96.14          87.64          29.87
     1.084              -47.72           15.7          20.95           47.8          4.775         -18.47          106.5         -4.582           95.6          87.52          30.18
     1.118              -47.69          15.72          21.13          47.81          4.719         -18.42          106.3         -4.525          94.97          87.37          30.54
     1.152              -47.66          15.75          21.35          47.81          4.653         -18.36          106.1         -4.459          94.24           87.2          30.96
     1.185              -47.61          15.79           21.6          47.82          4.576         -18.28          105.8          -4.38          93.38           87.0          31.46
     1.219              -47.56          15.83           21.9          47.83          4.484          -18.2          105.5         -4.287          92.36          86.76          32.04
     1.253               -47.5          15.88          22.27          47.83          4.373         -18.09          105.1         -4.176          91.13          86.47          32.75
     1.287              -47.43          15.93           22.7          47.85           4.24         -17.97          104.7         -4.041          89.65          86.12           33.6
     1.321              -47.34          16.01          23.24          47.86          4.077         -17.82          104.1         -3.877          87.84           85.7          34.64
     1.355              -47.23           16.1           23.9          47.87          3.876         -17.63          103.4         -3.674           85.6          85.18          35.93
     1.389              -47.09          16.21          24.72          47.89          3.625         -17.39          102.6          -3.42          82.81          84.52          37.53
     1.423              -46.91          16.35          25.76          47.92          3.309          -17.1          101.5         -3.101          79.29           83.7          39.55
